<?xml version="1.0" encoding="utf-8"?>
<!-- Uploaded to: SVG Repo, www.svgrepo.com, Generator: SVG Repo Mixer Tools -->
<svg fill="#000000" version="1.1" id="Layer_1" xmlns="http://www.w3.org/2000/svg" xmlns:xlink="http://www.w3.org/1999/xlink" 
	 width="800px" height="800px" viewBox="0 0 256 241" enable-background="new 0 0 256 241" xml:space="preserve">
<path d="M125.808,238.749l-0.067,0.063h-2.398h-70.56h-0.004c-27.801,0-48.018-21.349-50.518-45.727
	c-1.081-10.546,1.149-21.658,7.522-31.856l57.148-91.437L24.678,2.188h126.768l-40.543,64.868
	c10.727-2.81,27.698-4.953,36.491-3.675l-3.21,7.518c-7.866-0.537-22.587,1.438-31.857,3.908l54.014,86.422
	C187.012,194.3,164.159,236.984,125.808,238.749z M254,132.818l-64.01,39.289l-52.791-85.721l7.135-15.449
	c1.157,0.066,2.332,0.158,3.527,0.283c7.414,0.777,13.72,2.573,18.223,5.086c-1.104,3.319-0.791,7.084,1.182,10.298
	c3.546,5.777,11.103,7.585,16.879,4.039c5.777-3.546,7.585-11.103,4.039-16.879c-3.546-5.776-11.103-7.585-16.879-4.039
	c-0.13,0.08-0.256,0.164-0.382,0.248c-6.375-3.853-14.882-6.004-23.384-6.766l8.433-18.274l45.073,1.466L254,132.818z
	 M231.051,124.549l0.053-0.15l-3.554-5.949l-0.156,0.971c-0.973,5.923-4.471,11.076-9.605,14.166
	c-3.78,2.258-8.077,3.211-12.453,2.762c-4.071-0.417-7.962-2.081-11.075-4.709l23.307-13.923l-0.773-5.189l-25.897,15.47
	c-0.328-0.469-0.638-0.949-0.93-1.438s-0.568-0.99-0.826-1.501l27.104-16.191l-0.773-5.189l-27.944,16.693
	c-1.787-8.358,1.84-16.911,9.106-21.441l0.088-0.052c0.052-0.031,0.105-0.063,0.157-0.094l0.07-0.042
	c5.127-3.063,11.322-3.701,16.988-1.767l0.562,0.186l-0.783-5.325l-0.224-0.056c-6.502-1.624-13.247-0.634-19.004,2.805
	l-0.087,0.052c-0.07,0.042-0.122,0.073-0.193,0.115c-9.551,5.871-14.075,17.454-11.059,28.187l-4.322,2.582l0.703,5.231l5.424-3.24
	c0.258,0.511,0.533,1.011,0.826,1.501s0.603,0.969,0.931,1.438l-3.762,2.247l0.773,5.189l6.177-3.69
	c8.161,7.898,20.609,9.342,30.373,3.509C225.277,134.717,229.104,130.034,231.051,124.549z"/>
</svg>